<svg width="917" height="1043" viewBox="0 0 917 1043" fill="none" xmlns="http://www.w3.org/2000/svg">
<path d="M453 1.86669C450.867 2.80002 446.067 5.46669 442.334 7.60003C176.067 167.2 5.80016 270.133 3.66683 272.8C1.93349 275.067 1.00016 278.267 1.00016 282C1.00016 288.667 4.20016 292.8 12.8668 297.867C15.9335 299.467 36.0668 311.333 57.6668 324C79.2668 336.667 100.334 349.067 104.334 351.333C108.334 353.733 130.867 366.8 154.334 380.667C197.934 406.267 240.467 431.067 250.734 437.067C253.934 438.8 256.867 441.067 257.134 441.867C257.4 442.667 257.534 458.133 257.4 476.267L257 509.067L246.334 502.667C240.467 499.2 218.334 485.867 197 473.067C125.267 429.733 29.0002 371.6 24.6002 368.933C19.4002 365.867 11.0002 366.4 6.73349 370.267C0.0668279 376.133 0.333494 368.4 0.333494 568.933C0.333494 747.333 0.466828 756.933 2.73349 761.2C5.26683 765.867 4.06683 765.067 78.3335 810.667C93.0002 819.733 116.467 834.133 130.334 842.667C144.334 851.2 180.867 873.733 211.667 892.667C242.467 911.6 275.134 931.6 284.334 937.333C293.534 943.067 326.2 963.2 357 982C387.8 1000.93 421.667 1021.73 432.2 1028.27C442.734 1034.93 453.134 1040.93 455.134 1041.6C460.334 1043.47 463.8 1042 479.667 1031.73C487 1027.07 503.8 1016.4 517 1008C542.734 991.867 660.6 917.067 671.667 910C675.4 907.6 699.667 892.267 725.667 875.733C751.667 859.333 784.2 838.667 797.934 829.867C811.667 821.2 826.734 811.6 831.4 808.667C903.267 763.333 911.534 758 914.2 754.267C919.134 747.467 917 737.2 909.667 732.933C903.8 729.467 897.8 730.133 889.534 735.067C883 739.067 759.8 817.067 736.334 832.133C693.267 859.733 674.2 871.467 673.4 871.067C672.067 870.4 672.067 643.733 673.4 641.867C673.933 641.2 677.933 638.533 682.333 636C686.733 633.6 692.333 630.533 694.733 629.067C703.934 623.867 707.934 621.6 715.667 617.333C720.067 614.933 729.667 609.467 737 605.333C761.534 591.2 808.2 565.333 809 565.333C809.4 565.333 809.534 590.667 809.4 621.6L809 677.867L785 692.267C771.8 700.267 759.934 707.467 758.6 708.133C756.2 709.467 756.067 708.533 756.6 685.6C757 662.8 756.867 661.333 754.2 657.733C748.067 649.467 737.8 648.667 730.467 655.867L726.334 660L725.4 682.4C725 694.667 724.467 713.333 724.467 723.733C724.334 740.8 724.6 743.333 727 746.667C730.334 751.333 736.467 753.867 741.667 752.8C743.934 752.4 769.267 738 798.067 720.8C826.734 703.733 864.2 681.6 881 671.6C897.934 661.733 912.867 652 914.334 650C917 646.533 917 644.4 917 462.133C917 260.267 917.534 273.2 909 268.533C901.134 264.4 897.267 266 850.334 293.6C826.2 307.867 786.6 331.067 762.334 345.2C738.2 359.467 712.334 374.533 705.134 378.8C697.8 383.2 691.4 386.667 690.867 386.667C690.333 386.667 684.2 382.933 677.4 378.4C670.6 373.867 656.333 364.533 645.8 357.733C629.8 347.2 626.867 344.933 628.467 343.467C630.2 341.867 661.267 323.333 674.333 316C677.267 314.4 685.933 309.333 693.667 304.667C707.934 296.267 773.134 258 799.534 242.667C814.467 234 819 229.333 819 222.533C819 214.133 815.934 212.133 731 161.067C685.933 134.133 644.867 109.333 639.667 106.133C593.667 77.7334 464.2 1.20002 461 0.666691C458.867 0.266691 455.267 0.800025 453 1.86669ZM527.667 75.3334L595.267 115.867L586.067 121.733C574.6 129.2 553.134 142.533 534.334 154.133C526.334 159.067 514.334 166.533 507.667 170.667C501.134 174.933 479.534 188.4 459.667 200.667C366.734 258.4 355.534 265.6 353.4 269.067C348.067 277.2 352.2 289.467 361.134 291.867C364.6 292.8 367.267 292.8 370.867 291.467C373.534 290.533 390.334 280.667 408.334 269.333C426.334 258.133 447.134 245.067 454.6 240.4L468.067 232L494.2 248.933C508.6 258.4 520.334 266.4 520.334 266.8C520.334 267.333 505.134 277.2 486.734 288.8C433.534 322.133 435.267 320.8 433.534 326.8C430.6 336.533 438.2 346.667 448.467 346.667C453.134 346.667 456.733 344.4 600.333 254.133C633 233.733 671 209.867 684.733 201.067C698.6 192.4 710.2 185.333 710.467 185.333C710.734 185.333 721 191.467 733.4 198.933C745.667 206.267 759.134 214.4 763.4 216.933C767.534 219.467 771 221.867 771 222.4C771 223.2 751.267 235.067 675.667 279.067C644.867 297.067 642.733 298.4 607 319.333C484.333 391.333 460.334 405.333 459 405.333C458.2 405.333 437.4 393.2 412.734 378.4C387.934 363.6 339.534 334.667 305.134 314C270.734 293.467 242.6 276 242.6 275.333C242.6 274.133 277.8 252.667 414.867 170.667C443.667 153.467 468.6 138 470.334 136.267C479 127.6 471.667 110.667 459.267 110.667C454.6 110.667 424.867 127.733 356.2 169.467C349.134 173.867 342.867 177.333 342.334 177.333C340.467 177.333 281.667 142 282.067 141.067C282.467 139.733 456.6 34.9334 458.6 34.8C459.534 34.6667 490.6 52.9334 527.667 75.3334ZM654.067 151.2C677.4 165.067 680.2 167.2 678.067 168.533C669.8 174.133 553.667 246.8 551.933 247.467C550.6 248 547 246.533 542.734 243.6C538.867 241.067 527.534 233.733 517.534 227.2C507.667 220.667 499.267 214.8 499.134 214.133C498.867 213.467 502.734 210.4 507.534 207.467C544.2 184.8 576.733 164.4 598.333 150.8C612.333 142 624.6 134.933 625.667 135.067C626.733 135.2 639.533 142.4 654.067 151.2ZM281.134 177.6C297.534 187.333 311 195.6 311 196C311 196.8 309.267 197.867 251 232.667C224.2 248.533 200.734 263.333 198.734 265.467C194.067 270.4 193.534 279.2 197.534 284.267C199 286 214.6 296.133 232.2 306.8C249.934 317.333 264.334 326.267 264.334 326.667C264.334 327.067 248.734 336.533 229.667 347.867L195 368.267L177.934 358.4C159.934 347.867 104.467 315.333 69.4002 294.8C57.8002 288 48.3335 282 48.3335 281.467C48.3335 280.933 59.5335 273.867 73.4002 265.6C87.1335 257.467 132.2 230.4 173.667 205.333C215.134 180.4 249.534 160 250.2 160C250.867 160 264.867 168 281.134 177.6ZM884.6 373.6C883.267 374.933 851.4 393.6 741.667 457.2C718.6 470.667 697 483.2 693.667 485.333C690.333 487.333 673.933 496.933 657 506.667C571.667 556.133 555.4 565.867 552.733 569.067C549.8 572.533 549.667 573.467 549.667 602.8V632.933L512.334 657.733L475 682.667V616.133V549.6L480.734 546.4C485.8 543.467 506.733 531.2 635.667 455.6C657 443.2 682.733 428 693 422C703.267 416 727.934 401.6 747.667 390C767.534 378.4 806.467 355.467 834.334 339.2L885 309.467L885.4 340.933C885.534 358.267 885.267 372.933 884.6 373.6ZM312.867 354.933C321.8 360.267 356.867 381.333 391 401.733C425.134 422.133 455 439.2 457.4 439.6C462.334 440.4 459.267 442.133 544.067 392.4C572.2 375.867 595.933 362.8 596.867 363.067C598.6 363.733 657.667 402.267 659.4 404C660.067 404.533 654.6 408.4 647.4 412.667C589.667 446.533 491.534 504 472.734 515.067L459 523.067L445.4 515.067C430.2 506.267 373.134 472.8 319.667 441.467C300.6 430.267 271.934 413.467 256.067 404.267C240.067 394.933 227 386.933 227 386.4C227 386 238.867 378.533 253.4 370C267.8 361.333 283 352.267 287 349.867C291 347.467 294.867 345.333 295.534 345.333C296.2 345.333 304.067 349.6 312.867 354.933ZM77.8002 437.467C102.334 452.267 137 473.2 155 484C173 494.8 219.8 523.067 259 546.667C298.2 570.4 337 593.733 345 598.533L359.667 607.333L359.934 721.067C360.2 783.467 359.934 834.667 359.667 834.667C359 834.667 343.4 825.6 275.667 786C255.934 774.4 236.2 762.933 232.067 760.4C219.667 753.2 209.934 747.6 193.4 737.867L177.667 728.667V701.6C177.667 680.4 178.067 674.533 179.4 675.067C180.2 675.333 204.067 689.6 232.334 706.667C296.867 745.733 293.8 744 297.4 744C302.334 744 308.867 740.267 311.4 736.133C313.4 732.667 313.667 726.933 313.667 681.467V630.667L309.4 626.133C307 623.733 293 614.533 278.334 605.733C263.667 596.933 230.067 576.667 203.667 560.667C101.4 498.667 105.534 501.067 99.8002 501.733C96.3335 502.267 93.1335 503.867 90.4668 506.533L86.3335 510.667L85.6668 539.867L85.0002 568.933L58.7335 552.4L32.3335 535.733V473.2C32.3335 438.8 32.6002 410.667 32.8668 410.667C33.1335 410.667 53.2668 422.8 77.8002 437.467ZM885.667 521.733V632.933L864.067 645.6L842.334 658.4L841.667 595.467C841.134 549.867 840.6 531.867 839.4 529.867C835.267 522.667 823.4 520.4 815.667 525.2C813.4 526.533 777.667 546.667 736.334 570C647.267 620 646.067 620.667 643.933 624.4C642.733 626.667 642.2 657.6 641.667 760L641 892.533L624.333 903.2C557.667 945.6 483 992.8 479.4 995.067L475 997.6V858.8V720L511 696C530.734 682.8 547.533 672 548.333 672C549.267 672 549.667 702.133 549.667 762.133V852.267L554.2 856.8C559.4 862 565.667 862.8 572.333 859.333C580.733 854.933 580.333 862.267 580.333 718.4V587.333L658.067 542C700.734 517.2 757 484.4 783 469.333C809 454.133 842.334 434.8 856.867 426.267C871.534 417.6 883.934 410.667 884.6 410.667C885.134 410.667 885.667 460.667 885.667 521.733ZM321.667 478.667C332.334 484.933 363.934 503.467 392.067 519.867L443 549.733V668.267C443 733.333 442.6 786.667 442.2 786.667C441.667 786.667 430.067 780.267 416.2 772.4L391 758V675.467V593.067L386.734 588.8C384.334 586.533 361.534 572.133 336.067 556.8L289.667 528.933V494.4V459.867L296.067 463.6C299.534 465.6 311 472.4 321.667 478.667ZM148.334 563.6C164.067 573.067 187.534 587.2 200.334 595.067C213.134 602.8 236.867 617.2 253 626.933L282.334 644.667L282.734 672.267C282.867 687.6 282.734 700 282.2 700C281.8 700 259.667 686.933 233.267 670.933C164.067 629.2 166.867 630.667 161.4 630.667C156.334 630.667 150.867 634.133 147.934 639.067C146.867 641.067 146.067 652.4 145.667 675.733L145 709.467L112.734 690.667C95.0002 680.267 78.4668 671.467 76.0668 671.2C71.0002 670.4 63.5335 674.667 60.6002 680C58.6002 683.867 59.4002 690.933 62.2002 695.333C63.2668 697.067 75.5335 704.933 89.2668 712.933C121.134 731.6 246.6 804.933 314.334 844.667C343 861.467 368.334 875.867 370.867 876.8C376.6 878.8 382.334 877.2 387 872.667L390.334 869.333L390.734 832C391 811.467 391.4 794.667 391.934 794.667C392.334 794.667 403.934 801.067 417.8 808.933L443 823.333V910.267C443 958.133 442.6 997.333 442.067 997.333C441.267 997.333 423.534 986.533 402.334 973.333C397.934 970.533 361.4 948 321 923.2C184.334 839.467 154.334 820.933 141 812.667C129.934 805.867 93.0002 783.067 41.4002 751.467L32.3335 746V659.6C32.3335 612.133 32.6002 573.333 33.0002 573.333C33.6668 573.333 70.8668 596.667 88.7335 608.133C98.6002 614.533 104.734 615.067 110.867 609.867C113.134 608 115.534 604.267 116.334 601.6C117 598.933 117.667 585.067 117.667 570.933C117.667 556.8 118.067 545.467 118.734 545.733C119.267 546 132.6 554.133 148.334 563.6Z" fill="#EBCE2C"/>
</svg>
